<?xml-stylesheet type="text/css" href="svg.css" ?>
<svg id="Tomato" xmlns="http://www.w3.org/2000/svg" viewBox="0 0 64 64">
  <defs>
    <style>
      .cls-1 {
        fill: #FFFFFF;
      }
    </style>
  </defs>
  <title>Tomato_Named</title>
  <g id="Body">
    <path class="cls-1" d="M39.875,17.75s5.83.78,8.533.78c.294,0,.55-.01.759-.03.13-.013.245-.046.369-.069a26.069,26.069,0,0,0-9.2-3.712c-2.451-.53-4.5,4.69-6.8,4.69-.665,0-1.556-1.224-2.521-2.479l-.137-.013s-.055-.149-.168-.379c-.972-1.238-2-2.387-2.944-2.281a33.586,33.586,0,0,0-8.111,1.7c-.356.193-.687.4-1.02.6a3.087,3.087,0,0,0,1.91.735q.227.009.423.009c2.369,0,1.7-1.012,3.993-1.051h.134c2.3,0,2.7,1.052,2.7,1.052a2.943,2.943,0,0,0-.831-.1,4.66,4.66,0,0,0-3.628,1.928c-2.125,2.583-.041,6.417-7.083,10.25,0,0,.418.041,1.076.041,1.72,0,5.085-.283,6.924-2.333,2.542-2.833,1.417-5.791,5.458-6.125a3.4,3.4,0,0,0,2.625.959h.145a3.361,3.361,0,0,0,2.48-.751,2.1,2.1,0,0,1,1.75,1.25c.625,1.25-.25,4.125,1.584,6.791a7.527,7.527,0,0,0,5.041,3.5,8.891,8.891,0,0,1-3.166-5.791c-.542-3.917.041-6.084-1.625-7.5C38.542,19.417,38.292,18.125,39.875,17.75Z"/>
    <path class="cls-1" d="M50.974,19.574a5.885,5.885,0,0,1-1.661.419c-.253.025-.549.037-.905.037-2.2,0-6.276-.482-7.97-.7a8.928,8.928,0,0,1,.947,4.339c.051.884.109,1.887.268,3.037a7.392,7.392,0,0,0,2.552,4.777l4.467,3.19L43.2,34.2a9.064,9.064,0,0,1-6.147-4.145A9.988,9.988,0,0,1,35.5,24.413a6.142,6.142,0,0,0-.132-1.326,1.049,1.049,0,0,0-.183-.263,5.759,5.759,0,0,1-2.706.594l-.177,0a5.505,5.505,0,0,1-3.06-.887c-1.082.2-1.295.725-1.828,2.036a11.17,11.17,0,0,1-2.046,3.52c-2.21,2.464-5.987,2.831-8.041,2.831-.712,0-1.174-.043-1.224-.048l-4.848-.481,4.279-2.329c4.128-2.248,4.639-4.338,5.133-6.359a9.516,9.516,0,0,1,1.082-2.935,7.708,7.708,0,0,1-.783.037c-.152,0-.314,0-.488-.011A4.546,4.546,0,0,1,17.344,17.4C11.4,21.616,9.75,27.531,9.75,35.124c0,11.714,10.437,21.209,23.312,21.209s23.313-9.495,23.313-21.209C56.375,29.082,55.255,23.455,50.974,19.574Z"/>
  </g>
  <path id="Leaf" class="cls-1" d="M17.167,13.833s.5,3.334,3.375,3.459,2-1,4.416-1.042S27.792,17.3,27.792,17.3s-2.334-.759-4.459,1.824-.041,6.417-7.083,10.25c0,0,5.458.542,8-2.292s1.417-5.791,5.458-6.125a3.4,3.4,0,0,0,2.625.959,3.452,3.452,0,0,0,2.625-.75,2.1,2.1,0,0,1,1.75,1.25c.625,1.25-.25,4.125,1.584,6.791a7.527,7.527,0,0,0,5.041,3.5,8.891,8.891,0,0,1-3.166-5.791c-.542-3.917.041-6.084-1.625-7.5,0,0-.25-1.292,1.333-1.667,0,0,7.167.958,9.292.75a4.89,4.89,0,0,0,3.291-1.875s-5.083.042-7.041-.625-2.907-1.74-3.959-1.917-3.916-.5-6.25,3.25l-4.333-.416a5.642,5.642,0,0,0-3.458-3.292c-2.5-.667-3.792.708-5.209,1.042A6.678,6.678,0,0,1,17.167,13.833Z"/>
  <path id="Stalk" class="cls-1" d="M30.333,17.958s2.23-7.489,6.237-12.831c0,0,.74-1.411,2.111,0,1.216,1.252.071,1.5-.5,2.361a18.557,18.557,0,0,0-2.911,9.9Z"/>
</svg>
